<?xml version="1.0" encoding="UTF-8"?>
<svg id="_圖層_4" data-name="圖層 4" xmlns="http://www.w3.org/2000/svg" viewBox="0 0 500 500">
  <defs>
    <style>
      .cls-1 {
        stroke-dasharray: 0 0 41.53 41.53;
      }

      .cls-1, .cls-2, .cls-3, .cls-4 {
        stroke: #6d9ff4;
      }

      .cls-1, .cls-2, .cls-4 {
        fill: none;
        stroke-width: 25px;
      }

      .cls-1, .cls-4 {
        stroke-linecap: round;
        stroke-linejoin: round;
      }

      .cls-2, .cls-3 {
        stroke-miterlimit: 10;
      }

      .cls-3 {
        fill: #6d9ff4;
        stroke-width: 15px;
      }
    </style>
  </defs>
  <g>
    <g>
      <line class="cls-4" x1="256.29" y1="66.38" x2="270.43" y2="80.52"/>
      <line class="cls-1" x1="299.8" y1="109.89" x2="402.59" y2="212.69"/>
      <line class="cls-4" x1="417.28" y1="227.37" x2="431.42" y2="241.51"/>
    </g>
    <g>
      <path class="cls-2" d="M27.1,286.92L286.56,27.46s14.36,12.97,35.29,0c3.48,3.97,12.28,12.97,12.28,12.97,0,0-21.62,51.89,34.59,34.59l12.97,12.97s-25.95,47.57,30.27,34.59l12.97,12.97s-21.62,43.24,30.27,30.27l17.3,17.3s-12.97,12.97-4.32,30.27l-255.13,255.13s-8.65-12.97-30.27,0l-12.97-12.97s21.62-47.57-30.27-34.59l-17.3-12.97s21.62-47.57-30.27-34.59l-12.97-12.97s12.97-47.57-34.59-30.27l-12.97-12.97s12.97-21.62-4.32-30.27Z"/>
      <g>
        <line class="cls-4" x1="68.18" y1="254.49" x2="82.33" y2="268.63"/>
        <line class="cls-1" x1="111.7" y1="298" x2="214.49" y2="400.79"/>
        <line class="cls-4" x1="229.17" y1="415.48" x2="243.32" y2="429.62"/>
      </g>
    </g>
  </g>
  <path class="cls-3" d="M307.33,248.79l15.74-.46c.39,29.2-11.22,50.35-34.84,63.45-16.87,9.36-34,11.28-51.4,5.77-17.4-5.51-30.62-16.42-39.67-32.73-9.05-16.3-11.29-33.35-6.73-51.14,4.56-17.79,14.96-31.19,31.19-40.2,16.24-9.01,32.87-11.16,49.91-6.46,17.04,4.7,30.96,16.28,41.75,34.74l-100.79,55.92c7.91,13.26,18.19,21.76,30.83,25.5,12.64,3.74,24.73,2.41,36.26-3.99,18.98-10.53,28.22-27.33,27.73-50.41ZM290.37,218.21c-7.9-9.59-17.46-15.22-28.68-16.9-11.23-1.67-21.97.33-32.23,6.03-21.09,11.7-28.55,30.73-22.37,57.09l83.29-46.21Z"/>
</svg>