<svg xmlns="http://www.w3.org/2000/svg" width="1070" height="390" viewBox="0 0 1070 390">
    <defs>
        <style>
            .cls-1{fill:#ffffc4;stroke:#707070}.cls-2{fill:none}.cls-3{clip-path:url(#clip-path)}.cls-4{opacity:.801;fill:url(#linear-gradient)}.cls-5{opacity:.498}.cls-6{fill:#9adcff;opacity:.21}.cls-13,.cls-14,.cls-18,.cls-7{fill:#fff}.cls-7{opacity:.1}.cls-8{fill:#b6b5b5}.cls-9{fill:#cdcdcd}.cls-10{fill:#f4f4f4}.cls-11{fill:#151c37;opacity:.15;mix-blend-mode:multiply;isolation:isolate}.cls-12{fill:#dddcdc}.cls-13{opacity:.06}.cls-14{opacity:.12}.cls-15{opacity:.497;clip-path:url(#clip-path-2)}.cls-16,.cls-18{fill-rule:evenodd}.cls-16{fill:url(#linear-gradient-2)}.cls-17{clip-path:url(#clip-path-3)}
        </style>
        <clipPath id="clip-path">
            <path id="Rectangle_3024" d="M0 0h1070v390H0z" class="cls-1" data-name="Rectangle 3024" transform="translate(1327 -2152)"/>
        </clipPath>
        <linearGradient id="linear-gradient" x1=".5" x2=".5" y2="1" gradientUnits="objectBoundingBox">
            <stop offset="0" stop-color="#f4fbff"/>
            <stop offset="1" stop-color="#ceebff"/>
        </linearGradient>
        <clipPath id="clip-path-2">
            <path id="Rectangle_3022" d="M0 0h1012.703v74.653H0z" class="cls-2" data-name="Rectangle 3022"/>
        </clipPath>
        <linearGradient id="linear-gradient-2" x1=".5" x2=".5" y2="1" gradientUnits="objectBoundingBox">
            <stop offset="0" stop-color="#b2e4ff"/>
            <stop offset="1" stop-color="#92d4fd"/>
        </linearGradient>
        <clipPath id="clip-path-3">
            <path id="Rectangle_3023" d="M0 0h854.185v77.653H0z" class="cls-2" data-name="Rectangle 3023"/>
        </clipPath>
    </defs>
    <g id="Mask_Group_14" class="cls-3" data-name="Mask Group 14" transform="translate(-1327 2152)">
        <g id="Group_727" data-name="Group 727" transform="translate(1144 -2202)">
            <path id="Path_654" d="M0 0h1070v389.474H0z" class="cls-4" data-name="Path 654" transform="translate(183 49.94)"/>
            <g id="Group_715" class="cls-5" data-name="Group 715" transform="translate(183 50)">
                <g id="Group_714" data-name="Group 714">
                    <path id="Path_655" d="M918.032 165.493c-78.469-25.588-126.974-13.725-126.974-13.725s-84.529 25.821-149.8-15.353-156.22-51.877-156.22-51.877-66.339-5.35-117.345 15.12-215.07-12.328-215.07-12.328S83.53 74.246-.267 99.294v234.292c48.945-1.383 148.9-11.075 227.079-63.413C334.524 198.06 389.45 184.1 480.757 210.622s138.387-4.187 138.387-4.187 90.593-35.022 116.988 14.59 94.159 95.675 94.159 95.675 61.347 50.246 175.48 33.963c28.975-4.135 49.477-4.1 63.963-1.746V155.368c-37.655 12.198-100.577 26.796-151.702 10.125z" class="cls-6" data-name="Path 655" transform="translate(.267 -83.908)"/>
                </g>
            </g>
            <g id="Group_721" data-name="Group 721" transform="translate(953 80.747)">
                <g id="Group_719" data-name="Group 719" transform="translate(38.707 38.7)">
                    <circle id="Ellipse_31" cx="22.642" cy="22.642" r="22.642" class="cls-7" data-name="Ellipse 31" transform="rotate(-88.843 23.099 22.637)"/>
                    <g id="Group_718" data-name="Group 718" transform="translate(4.4 3.602)">
                        <path id="Rectangle_3018" d="M.6 0h4.3a.6.6 0 0 1 .6.6v4.66a.6.6 0 0 1-.6.6H.6a.6.6 0 0 1-.6-.6V.6A.6.6 0 0 1 .6 0z" class="cls-8" data-name="Rectangle 3018" transform="rotate(-83.011 27.791 12.376)"/>
                        <rect id="Rectangle_3019" width="5.863" height="5.5" class="cls-8" data-name="Rectangle 3019" rx=".764" transform="rotate(-69.052 34.366 -10.043)"/>
                        <rect id="Rectangle_3020" width="5.5" height="5.863" class="cls-9" data-name="Rectangle 3020" rx=".63" transform="rotate(-36.702 27.616 -38.335)"/>
                        <rect id="Rectangle_3021" width="5.5" height="5.863" class="cls-9" data-name="Rectangle 3021" rx=".764" transform="rotate(-88.028 10.09 -4.751)"/>
                        <path id="Path_656" d="M283.386 33.887l-.82 1.036a2.758 2.758 0 0 1-3.864.453 2.758 2.758 0 0 1-.453-3.864l.82-1.036a2.758 2.758 0 0 1 3.864-.453 2.762 2.762 0 0 1 .453 3.864z" class="cls-9" data-name="Path 656" transform="translate(-275.856 -22.955)"/>
                        <path id="Path_657" d="M314.494 46.611a18.668 18.668 0 1 1-18.668-18.672 18.669 18.669 0 0 1 18.668 18.672z" class="cls-10" data-name="Path 657" transform="translate(-277.158 -26.836)"/>
                        <path id="Path_658" d="M295.826 46.85a18.674 18.674 0 0 1-18.265-14.8 18.668 18.668 0 1 0 36.53 0 18.677 18.677 0 0 1-18.265 14.8z" class="cls-11" data-name="Path 658" transform="translate(-277.158 -16.149)"/>
                        <path id="Path_659" d="M284.092 30.7c.317.759-.338 1.756-1.461 2.223s-2.292.23-2.608-.529.338-1.756 1.464-2.223 2.289-.234 2.605.529z" class="cls-12" data-name="Path 659" transform="translate(-269.921 -21.671)"/>
                        <path id="Path_660" d="M280.059 33.656c-.478-1.144.507-2.644 2.2-3.349a3.639 3.639 0 0 1 3.317.068 3.349 3.349 0 0 0-3.608-.313c-1.694.7-2.68 2.2-2.2 3.346a1.641 1.641 0 0 0 .608.73 1.6 1.6 0 0 1-.317-.482z" class="cls-12" data-name="Path 660" transform="translate(-270.694 -22.261)"/>
                        <path id="Path_661" d="M284.061 30.471a1.063 1.063 0 0 0-.371-.457c.216.741-.424 1.666-1.5 2.112a2.384 2.384 0 0 1-2.238-.068c.011.036.022.072.036.108.316.759 1.486 1 2.608.529s1.782-1.465 1.465-2.224z" class="cls-11" data-name="Path 661" transform="translate(-269.89 -21.446)"/>
                        <path id="Path_662" d="M285 29.433c.05.453-.565.892-1.374.982s-1.507-.205-1.558-.658.565-.892 1.374-.982 1.511.205 1.558.658z" class="cls-12" data-name="Path 662" transform="translate(-264.403 -24.707)"/>
                        <path id="Path_663" d="M284.321 31.747a1.012 1.012 0 0 1-.187-1.3c-.032.05-.068.1-.1.148-.335.579-.284 1.23.108 1.461s.986-.058 1.32-.633c.029-.054.054-.108.079-.162-.341.476-.86.691-1.22.486z" class="cls-12" data-name="Path 663" transform="translate(-259.865 -20.326)"/>
                        <path id="Path_664" d="M282.155 30.346c-.079-.723.906-1.428 2.2-1.572a3.63 3.63 0 0 1 1.482.122 3.387 3.387 0 0 0-1.81-.252c-1.3.144-2.281.849-2.2 1.572.047.417.439.752 1.011.932a1.085 1.085 0 0 1-.683-.802z" class="cls-11" data-name="Path 664" transform="translate(-265.041 -25.069)"/>
                        <path id="Path_665" d="M284.531 29.432c-.043-.392-.568-.666-1.234-.673.367.112.619.32.648.586.05.453-.565.892-1.374.982a1.942 1.942 0 0 1-.32.014 2.3 2.3 0 0 0 .907.072c.808-.089 1.423-.528 1.373-.981z" class="cls-11" data-name="Path 665" transform="translate(-263.931 -24.706)"/>
                        <path id="Path_666" d="M280.637 32.135c.7.439.748 1.612.115 2.626s-1.712 1.482-2.41 1.047-.748-1.612-.115-2.626 1.712-1.482 2.41-1.047z" class="cls-12" data-name="Path 666" transform="translate(-275.532 -16.36)"/>
                        <path id="Path_667" d="M279.515 32.1a2.166 2.166 0 0 1 .446 2.709c.637-1.115.558-2.367-.2-2.842a1.475 1.475 0 0 0-1.389-.025 1.488 1.488 0 0 1 1.143.158z" class="cls-11" data-name="Path 667" transform="translate(-274.007 -16.847)"/>
                        <path id="Path_668" d="M278.709 35.7c-.957-.6-1.094-2.13-.367-3.544-.076.1-.151.209-.223.324-.939 1.5-.86 3.241.173 3.889s2.633-.05 3.569-1.551q.108-.173.194-.345c-.955 1.278-2.393 1.827-3.346 1.227z" class="cls-11" data-name="Path 668" transform="translate(-276.366 -15.869)"/>
                        <path id="Path_669" d="M280.494 32.135c-.7-.435-1.777.032-2.41 1.047a3.225 3.225 0 0 0-.245.486 1.45 1.45 0 1 1 2.443 1.525 2.837 2.837 0 0 0 .327-.432c.637-1.015.583-2.188-.115-2.626z" class="cls-11" data-name="Path 669" transform="translate(-275.389 -16.36)"/>
                        <path id="Path_670" d="M283.321 34.5a2.98 2.98 0 0 1 1.338 3.947 3.293 3.293 0 1 1-1.338-3.947z" class="cls-12" data-name="Path 670" transform="translate(-272.762 -11.296)"/>
                        <path id="Path_671" d="M279.188 36.759a2.976 2.976 0 0 1 4.134-.525 3.625 3.625 0 0 1 1.518 1.846 3.1 3.1 0 0 0-1.518-3.58 2.979 2.979 0 0 0-4.134.525 2.415 2.415 0 0 0-.18 2.1 1.923 1.923 0 0 1 .18-.366z" class="cls-11" data-name="Path 671" transform="translate(-272.762 -11.296)"/>
                        <path id="Path_672" d="M287.212 34.909a3.219 3.219 0 0 1-.414 1.77c-1.043 1.8-3.673 2.231-5.878.957a5.068 5.068 0 0 1-2.364-2.878 4.81 4.81 0 0 0 2.522 3.8c2.205 1.27 4.835.842 5.879-.961a3.389 3.389 0 0 0 .255-2.688z" class="cls-11" data-name="Path 672" transform="translate(-273.527 -9.123)"/>
                        <path id="Path_673" d="M280.646 37.825c.594-.95 2.166-1.033 3.515-.187a3.2 3.2 0 0 1 1.59 2.245 3 3 0 0 0-1.59-2.569c-1.349-.845-2.921-.763-3.515.187a1.551 1.551 0 0 0-.216.993 1.514 1.514 0 0 1 .216-.669z" class="cls-11" data-name="Path 673" transform="translate(-268.683 -3.998)"/>
                        <path id="Path_674" d="M284.37 37.857a1.11 1.11 0 0 1-.137.378c-.435.694-1.594.755-2.59.137a2.63 2.63 0 0 1-1.029-1.148 2.122 2.122 0 0 0 1.144 2.011c1 .622 2.155.561 2.59-.137a1.322 1.322 0 0 0 .022-1.241z" class="cls-11" data-name="Path 674" transform="translate(-268.238 -2.717)"/>
                        <path id="Path_675" d="M290.1 34.728a4.6 4.6 0 0 1 1.813 6.217 4.863 4.863 0 1 1-1.813-6.217z" class="cls-12" data-name="Path 675" transform="translate(-261.665 -11.298)"/>
                        <path id="Path_676" d="M284.98 38.355a4.593 4.593 0 0 1 6.382-1.1 5.4 5.4 0 0 1 1.083.9 5.018 5.018 0 0 0-2.346-3.421 4.593 4.593 0 0 0-6.382 1.1 4.41 4.41 0 0 0 .727 5.324 3.993 3.993 0 0 1 .536-2.803z" class="cls-11" data-name="Path 676" transform="translate(-261.664 -11.298)"/>
                        <path id="Path_677" d="M294.728 34.941a6.43 6.43 0 0 1-.986 3.454 6.127 6.127 0 0 1-8.393 2.13 5.856 5.856 0 0 1-2.608-3.738 5.917 5.917 0 0 0 2.752 5.019 6.124 6.124 0 0 0 8.393-2.126 6.381 6.381 0 0 0 .842-4.739z" class="cls-11" data-name="Path 677" transform="translate(-262.656 -8.647)"/>
                        <path id="Path_678" d="M282.692 33.359c-.13.378-.68.529-1.23.338s-.885-.651-.755-1.029.684-.529 1.23-.338.884.651.755 1.029z" class="cls-12" data-name="Path 678" transform="translate(-268.014 -15.642)"/>
                        <path id="Path_679" d="M283.044 32.386a.791.791 0 0 1 .068.633c-.176.511-.921.716-1.666.457a1.83 1.83 0 0 1-.81-.543 1.691 1.691 0 0 0 .953.759c.741.255 1.489.05 1.666-.46a.873.873 0 0 0-.211-.846z" class="cls-11" data-name="Path 679" transform="translate(-268.121 -15.284)"/>
                        <path id="Path_680" d="M280.965 32.938c.133-.378.684-.529 1.23-.338a1.43 1.43 0 0 1 .4.209 1.319 1.319 0 0 0-.655-.478c-.547-.191-1.1-.036-1.23.338a.765.765 0 0 0 .363.817.617.617 0 0 1-.108-.548z" class="cls-11" data-name="Path 680" transform="translate(-268.013 -15.642)"/>
                        <path id="Path_681" d="M284.27 32.236a.926.926 0 0 0-1 .216 1.025 1.025 0 0 1 .525.047.864.864 0 0 1 .626 1.04.726.726 0 0 1-.122.212.761.761 0 0 0 .6-.471.87.87 0 0 0-.629-1.044z" class="cls-11" data-name="Path 681" transform="translate(-261.292 -15.829)"/>
                        <path id="Path_682" d="M284.77 34.423a1.733 1.733 0 0 1-1.385-2 1.32 1.32 0 0 1 .191-.4 1.377 1.377 0 0 0-.561.77 1.73 1.73 0 0 0 1.385 2 1.835 1.835 0 0 0 2.011-.6 1.99 1.99 0 0 1-1.641.23z" class="cls-11" data-name="Path 682" transform="translate(-262.069 -16.217)"/>
                        <path id="Path_683" d="M286.972 32.589a.655.655 0 0 1-.144.443.555.555 0 0 1-.766.162.514.514 0 0 1-.1-.115.457.457 0 0 0 .162.324.562.562 0 0 0 .766-.162.6.6 0 0 0 .082-.652z" class="cls-11" data-name="Path 683" transform="translate(-254.291 -14.757)"/>
                        <path id="Path_684" d="M284.128 30.691a.589.589 0 0 1 .82.108.49.49 0 0 1 .047.414.543.543 0 0 0 .065-.622.59.59 0 0 0-.82-.1.682.682 0 0 0-.291.374.736.736 0 0 1 .179-.174z" class="cls-11" data-name="Path 684" transform="translate(-259.52 -20.522)"/>
                        <path id="Path_685" d="M287 31.381a.592.592 0 0 0-.766-.317.688.688 0 0 0-.342.234.785.785 0 0 1 .205-.1.592.592 0 0 1 .766.317.505.505 0 0 1-.108.464.542.542 0 0 0 .245-.598z" class="cls-11" data-name="Path 685" transform="translate(-254.465 -18.806)"/>
                        <path id="Path_686" d="M284.5 30.055c.079-.378.694-.568 1.374-.428a2.042 2.042 0 0 1 .5.169 1.686 1.686 0 0 0-.95-.5c-.68-.14-1.3.05-1.374.428-.054.273.194.572.6.766a.52.52 0 0 1-.15-.435z" class="cls-11" data-name="Path 686" transform="translate(-259.279 -23.422)"/>
                        <g id="Group_717" data-name="Group 717" transform="translate(1.056 25.884)">
                            <g id="Group_716" data-name="Group 716" transform="translate(.109)">
                                <path id="Path_687" d="M279.389 36.4c-.511-1.068-1.3-1.759-1.763-1.533a.39.39 0 0 0-.144.144 3.484 3.484 0 0 1 1.382 1.655 3.352 3.352 0 0 1 .291 2.087.412.412 0 0 0 .313-.022c.464-.22.432-1.263-.079-2.331z" class="cls-11" data-name="Path 687" transform="translate(-277.482 -34.827)"/>
                            </g>
                            <path id="Path_688" d="M278.935 36.534c.493 1.033.68 1.971.417 2.094s-.871-.612-1.363-1.644-.68-1.971-.421-2.1.874.616 1.367 1.65z" class="cls-8" data-name="Path 688" transform="translate(-277.452 -34.707)"/>
                            <path id="Path_689" d="M278.643 35.545c-.05-.1-.1-.2-.148-.291.388.91.522 1.684.284 1.8s-.756-.478-1.216-1.356c.043.1.086.2.133.3.493 1.033 1.1 1.77 1.363 1.644s.077-1.064-.416-2.097z" class="cls-11" data-name="Path 689" transform="translate(-277.16 -33.718)"/>
                        </g>
                        <path id="Path_690" d="M287.128 32.227a.9.9 0 0 1-1.173-.486.779.779 0 0 1 .137-.709.83.83 0 0 0-.32.9.9.9 0 0 0 1.169.486 1.054 1.054 0 0 0 .525-.374 1.089 1.089 0 0 1-.338.183z" class="cls-11" data-name="Path 690" transform="translate(-254.879 -18.799)"/>
                    </g>
                </g>
                <g id="Group_720" data-name="Group 720">
                    <path id="Path_691" d="M326.976 140.6c-34.077 0-61.8-27.975-61.8-62.361s27.723-62.361 61.8-62.361 61.8 27.975 61.8 62.361-27.724 62.361-61.8 62.361z" class="cls-13" data-name="Path 691" transform="translate(-265.176 -15.874)"/>
                    <path id="Path_692" d="M309.871 98.512A38.014 38.014 0 1 1 347.984 60.5a38.105 38.105 0 0 1-38.113 38.012z" class="cls-14" data-name="Path 692" transform="translate(-248.071 1.296)"/>
                </g>
            </g>
            <g id="Group_724" data-name="Group 724" transform="translate(245 367.94)">
                <g id="Group_723" class="cls-15" data-name="Group 723">
                    <g id="Group_722" data-name="Group 722" transform="translate(-115.228 .474)">
                        <path id="Path_693" d="M1105.11 316.4c-13.7 0-24.812 6.362-24.812 14.208a8.388 8.388 0 0 0 .36 2.426 70.667 70.667 0 0 0-18.66-2.426 68.506 68.506 0 0 0-22.562 3.648c-7.087-9.654-23.757-16.435-43.194-16.435-22.975 0-42.083 9.474-46.068 21.969a49.171 49.171 0 0 0-14.413-2.078c-16.787 0-30.4 7.793-30.4 17.405a10.421 10.421 0 0 0 .691 3.7c-.737.233-1.463.479-2.171.738-8.053-4.714-19.282-7.64-31.708-7.64a70.293 70.293 0 0 0-23.468 3.845c-6.38-7.531-19.861-12.725-35.462-12.725-21.525 0-39.013 9.886-39.383 22.161a82.673 82.673 0 0 0-16.138-1.56 77.747 77.747 0 0 0-25.78 4.195c-9.516-10.31-28.429-17.337-50.211-17.337-23.141 0-43.046 7.931-51.883 19.3a50.49 50.49 0 0 0-17.07 5.06c-8.468-3.957-19.281-6.33-31.062-6.33-16.775 0-31.585 4.811-40.46 12.154-10.177-9.38-28.331-15.627-49.035-15.627-18.66 0-35.247 5.075-45.792 12.943-8.044-4.074-18.615-6.549-30.2-6.549-17.091 0-31.982 5.385-39.789 13.354-7.533-6.345-20.241-10.513-34.65-10.513-23.126 0-41.872 10.735-41.872 23.977v48.662h1078.17v-2.593c32.493-2.286 57.654-18.143 57.654-37.367 0-13.753-12.88-25.781-32.105-32.352a16.585 16.585 0 0 0 1.71-7.253c0-15.007-21.245-27.173-47.455-27.173-13.486 0-25.658 3.221-34.3 8.393-8.844-10.434-27.522-17.628-49.137-17.628a90.873 90.873 0 0 0-20.731 2.336c-3.992-11.066-21.105-19.385-41.612-19.385-20.412 0-37.459 8.242-41.554 19.23a66.124 66.124 0 0 0-26.062-5.022 72.528 72.528 0 0 0-14.643 1.461c-.911-7.353-11.64-13.172-24.743-13.172z" class="cls-16" data-name="Path 693" transform="translate(-299.922 -313.918)"/>
                    </g>
                </g>
            </g>
            <g id="Group_726" data-name="Group 726" transform="translate(183 364.94)">
                <g id="Group_725" class="cls-17" data-name="Group 725">
                    <path id="Path_694" d="M239.316 317.6c10.525 0 19.057 6.459 19.057 14.426a11.084 11.084 0 0 1-.277 2.463 41.965 41.965 0 0 1 14.331-2.463 41.158 41.158 0 0 1 17.327 3.7c5.443-9.8 18.245-16.685 33.172-16.685 17.644 0 32.321 9.618 35.381 22.3a29.341 29.341 0 0 1 11.069-2.109c12.892 0 23.344 7.911 23.344 17.67a13.607 13.607 0 0 1-.531 3.761q.85.355 1.668.749c6.185-4.786 14.809-7.756 24.351-7.756a42.259 42.259 0 0 1 18.024 3.9c4.9-7.648 15.253-12.919 27.234-12.919 16.53 0 29.962 10.036 30.244 22.5a48.646 48.646 0 0 1 12.394-1.583 46.733 46.733 0 0 1 19.8 4.259c7.308-10.468 21.832-17.6 38.561-17.6 17.773 0 33.059 8.052 39.845 19.6a32.211 32.211 0 0 1 13.11 5.138 45.579 45.579 0 0 1 23.856-6.426c12.882 0 24.256 4.884 31.072 12.339 7.816-9.523 21.758-15.865 37.659-15.865 14.331 0 27.069 5.152 35.168 13.142a41.854 41.854 0 0 1 23.192-6.651c13.126 0 24.563 5.469 30.558 13.558 5.786-6.441 15.545-10.673 26.611-10.673 17.76 0 32.157 10.9 32.157 24.342v49.405H29.67V447.5c-24.955-2.321-44.277-18.421-44.277-37.937 0-13.963 9.891-26.175 24.657-32.846a21.394 21.394 0 0 1-1.314-7.363c0-15.237 16.317-27.588 36.444-27.588 10.358 0 19.705 3.27 26.34 8.521 6.792-10.593 21.137-17.9 37.738-17.9a53.674 53.674 0 0 1 15.921 2.371c3.065-11.235 16.208-19.681 31.957-19.681 15.676 0 28.768 8.368 31.913 19.524a40.282 40.282 0 0 1 20.015-5.1 42.7 42.7 0 0 1 11.246 1.484c.704-7.478 8.944-13.385 19.006-13.385z" class="cls-18" data-name="Path 694" transform="translate(-1.083 -313.894)"/>
                </g>
            </g>
        </g>
    </g>
</svg>
