<?xml version="1.0" encoding="utf-8"?>
<svg xmlns="http://www.w3.org/2000/svg" height="128" width="128" viewBox="0 0 128 128">
  <g>
    <ellipse cy="64" cx="64" ry="64" rx="64" fill="#278AFF" />
    <path id="path1" transform="rotate(0,64,64) translate(26.5085932608999,24) scale(2.49984384558498,2.49984384558498)  " fill="#FFFFFF" d="M14.852056,13.613926L14.83787,13.706585 14.826638,13.750157 14.786667,14.002622C13.1329,24.003123,7.9688067,29.738297,6.7531972,30.970065L6.7214522,31.001997 14.826364,31.001997 14.849668,30.949101C15.401829,29.685276,18.596006,21.726792,15.163854,13.887286L15.160993,13.879754 15.159986,13.879141C15.06363,13.813962,14.973856,13.739759,14.891888,13.657759z M13.146019,12.632013C12.745017,12.632013 12.419015,12.958011 12.419015,13.359009 12.419015,13.760007 12.745017,14.087006 13.146019,14.087006 13.446772,14.087006 13.705335,13.903069 13.81582,13.64193L13.839688,13.576754 13.854833,13.484704 13.872748,13.364427 13.873023,13.359009C13.873023,12.958011,13.547022,12.632013,13.146019,12.632013z M16.17201,11.567014C15.725011,11.567014 15.361011,11.931014 15.361011,12.378012 15.361011,12.825012 15.725011,13.18901 16.17201,13.18901 16.619009,13.18901 16.983007,12.825012 16.983007,12.378012 16.983007,11.931014 16.619009,11.567014 16.17201,11.567014z M13.533998,11.136005C11.470002,11.443989 6.5939951,12.253988 5.8290105,17.132992 7.4580087,15.468012 10.812013,12.265005 13.533998,11.136005z M20.526793,9.4306187C19.578722,9.4329962 18.532192,9.6538138 17.392,10.091998 17.65201,10.076006 17.924013,10.067004 18.209017,10.067004 20.030001,10.067004 22.34601,10.443011 24.795017,11.793995 24.345003,11.082996 23.632997,10.279986 22.558016,9.8220076 21.942007,9.5590644 21.264181,9.4287696 20.526793,9.4306187z M7.6709065,5.0404958C6.598505,5.0356302 5.3991895,5.2564802 4.0790105,5.7019763 6.3349919,6.0319938 10.059998,6.8130011 13.035006,8.5829921 12.440003,7.3919811 11.52002,6.1099968 9.9400034,5.4619856 9.262311,5.1846094 8.5049963,5.0442805 7.6709065,5.0404958z M22.179018,1.0039867C21.615999,1.0039868 21.045992,1.0859877 20.485994,1.2799881 18.112001,2.0999815 16.382021,4.7259922 15.336,9.0909886 16.942995,6.9309821 20.892,2.5779791 26.687016,2.4449832 25.570011,1.7749841 23.907991,1.0039868 22.179018,1.0039867z M22.283224,0.00053036054C25.637571,0.042197628,28.581768,2.5252936,28.730015,2.651984L29.994999,3.7339864 28.343021,3.5279927C22.265017,2.7739937 18.050997,7.1750011 16.302004,9.4640059 18.895998,8.3090052 21.132021,8.1219935 22.963015,8.9069981 25.643009,10.058001 26.401005,12.861014 26.432011,12.978995L26.776005,14.300011 25.660007,13.513999C22.665264,11.404751,19.743294,11.008408,17.681799,11.093084L17.458052,11.10478 17.569078,11.22696C17.827583,11.540175 17.983006,11.941389 17.983006,12.378012 17.983006,13.25126 17.361319,13.982868 16.536648,14.152126L16.366804,14.178131 16.37784,14.205543C19.281746,21.630793,16.827188,28.787753,15.948698,30.925971L15.917146,31.001997 25.075008,31.001997C25.351007,31.001997 25.575008,31.225998 25.575008,31.501997 25.575008,31.777998 25.351007,32.001997 25.075008,32.001997L1.8040043,32.001997C1.5280043,32.001997 1.3040042,31.777998 1.3040041,31.501997 1.3040042,31.225998 1.5280043,31.001997 1.8040043,31.001997L5.6909327,31.001997 5.6710982,30.925103C5.6461773,30.76639 5.6978164,30.5985 5.8240623,30.480999 5.8874678,30.421164 11.540843,25.046324 13.573983,15.045968L13.577059,15.030243 13.493556,15.051798C13.381255,15.074876 13.265019,15.087001 13.146019,15.087001 12.253514,15.087001 11.516576,14.404973 11.427945,13.535299L11.427474,13.526015 11.347229,13.583601C9.0465183,15.263468,6.6667785,17.649807,5.5970158,18.829009L4.7260136,19.789002 4.7269902,18.494017C4.7279973,11.433003,11.329011,10.451983,13.497011,10.129992L13.549013,10.121996C9.2879953,6.9659858,2.0800173,6.4789858,2.0060122,6.474988L0,6.3489804 1.830994,5.52C5.264008,3.9659815 8.1210031,3.6359944 10.319001,4.5369968 12.614992,5.4770007 13.70801,7.5299821 14.328005,9.0120091 15.455996,4.1979766 17.416994,1.2799883 20.162996,0.33298052 20.873188,0.088401472 21.58704,-0.008117235 22.283224,0.00053036054z" />
  </g>
</svg>
