<?xml version="1.0" encoding="utf-8"?>
<svg xmlns="http://www.w3.org/2000/svg" height="128" width="128" viewBox="0 0 128 128">
  <g>
    <ellipse cy="64" cx="64" ry="64" rx="64" fill="#278AFF" />
    <path id="path1" transform="rotate(0,64,64) translate(32.931311249733,18) scale(2.875,2.875)  " fill="#FFFFFF" d="M10.806004,14.390991L8.3320036,19.401978 2.8020029,20.204956 6.8040032,24.106995 5.8600025,29.61499 10.806004,27.013977 15.753012,29.61499 14.808004,24.106995 18.810004,20.204956 13.280004,19.401978z M2.5280008,0L12.649999,0C15.53301,0.063964844,15.980001,2.7539673,15.980001,2.7539673L15.980001,18.47699 21.613,19.294983 16.209998,24.562988 17.485007,32 10.806995,28.487976 4.1280074,32 5.4030018,24.562988 0,19.294983 5.475008,18.5 5.475008,2.7539673C5.1539936,0.32000732,2.5280008,0,2.5280008,0z" />
  </g>
</svg>

